<?xml version="1.0" encoding="UTF-8" standalone="no"?>
<!-- Generator: Adobe Illustrator 22.1.0, SVG Export Plug-In . SVG Version: 6.00 Build 0)  -->

<svg
   xmlns:dc="http://purl.org/dc/elements/1.1/"
   xmlns:cc="http://creativecommons.org/ns#"
   xmlns:rdf="http://www.w3.org/1999/02/22-rdf-syntax-ns#"
   xmlns:svg="http://www.w3.org/2000/svg"
   xmlns="http://www.w3.org/2000/svg"
   xmlns:xlink="http://www.w3.org/1999/xlink"
   xmlns:sodipodi="http://sodipodi.sourceforge.net/DTD/sodipodi-0.dtd"
   xmlns:inkscape="http://www.inkscape.org/namespaces/inkscape"
   version="1.1"
   x="0px"
   y="0px"
   viewBox="0 0 1255 75"
   xml:space="preserve"
   id="svg1075"
   sodipodi:docname="scbd.svg"
   width="1255"
   height="75"
   inkscape:version="0.92.4 5da689c313, 2019-01-14"><metadata
   id="metadata1081"><rdf:RDF><cc:Work
       rdf:about=""><dc:format>image/svg+xml</dc:format><dc:type
         rdf:resource="http://purl.org/dc/dcmitype/StillImage" /><dc:title /></cc:Work></rdf:RDF></metadata><defs
   id="defs1079"><linearGradient
     y2="114"
     x2="985.30603"
     y1="44"
     x1="985.30603"
     gradientUnits="userSpaceOnUse"
     id="SVGID_5_">
			<stop
   id="stop2100"
   style="stop-color:#000000"
   offset="0" />
			<stop
   id="stop2102"
   style="stop-color:#584842"
   offset="5.509242e-02" />
			<stop
   id="stop2104"
   style="stop-color:#805547"
   offset="0.1195" />
			<stop
   id="stop2106"
   style="stop-color:#A05642"
   offset="0.1848" />
			<stop
   id="stop2108"
   style="stop-color:#BC5039"
   offset="0.2496" />
			<stop
   id="stop2110"
   style="stop-color:#D0432F"
   offset="0.3138" />
			<stop
   id="stop2112"
   style="stop-color:#DF3328"
   offset="0.3773" />
			<stop
   id="stop2114"
   style="stop-color:#E82325"
   offset="0.4398" />
			<stop
   id="stop2116"
   style="stop-color:#ED1C24"
   offset="0.5" />
			<stop
   id="stop2118"
   style="stop-color:#E82325"
   offset="0.5602" />
			<stop
   id="stop2120"
   style="stop-color:#DF3328"
   offset="0.6227" />
			<stop
   id="stop2122"
   style="stop-color:#D0432F"
   offset="0.6862" />
			<stop
   id="stop2124"
   style="stop-color:#BC5039"
   offset="0.7504" />
			<stop
   id="stop2126"
   style="stop-color:#A05642"
   offset="0.8152" />
			<stop
   id="stop2128"
   style="stop-color:#805547"
   offset="0.8805" />
			<stop
   id="stop2130"
   style="stop-color:#584842"
   offset="0.9449" />
			<stop
   id="stop2132"
   style="stop-color:#000000"
   offset="1" />
		</linearGradient><linearGradient
     gradientTransform="translate(-367.49998,-41.499998)"
     id="SVGID_5_-8"
     gradientUnits="userSpaceOnUse"
     x1="985.30603"
     y1="44"
     x2="985.30603"
     y2="114"><stop
       offset="0"
       style="stop-color:#000000"
       id="stop198-6" /><stop
       offset="5.509242e-02"
       style="stop-color:#584842"
       id="stop200-0" /><stop
       offset="0.1195"
       style="stop-color:#805547"
       id="stop202-2" /><stop
       offset="0.1848"
       style="stop-color:#A05642"
       id="stop204-5" /><stop
       offset="0.2496"
       style="stop-color:#BC5039"
       id="stop206-5" /><stop
       offset="0.3138"
       style="stop-color:#D0432F"
       id="stop208-6" /><stop
       offset="0.3773"
       style="stop-color:#DF3328"
       id="stop210-9" /><stop
       offset="0.4398"
       style="stop-color:#E82325"
       id="stop212-8" /><stop
       offset="0.5"
       style="stop-color:#ED1C24"
       id="stop214-0" /><stop
       offset="0.5602"
       style="stop-color:#E82325"
       id="stop216-3" /><stop
       offset="0.6227"
       style="stop-color:#DF3328"
       id="stop218-1" /><stop
       offset="0.6862"
       style="stop-color:#D0432F"
       id="stop220-2" /><stop
       offset="0.7504"
       style="stop-color:#BC5039"
       id="stop222-6" /><stop
       offset="0.8152"
       style="stop-color:#A05642"
       id="stop224-1" /><stop
       offset="0.8805"
       style="stop-color:#805547"
       id="stop226-4" /><stop
       offset="0.9449"
       style="stop-color:#584842"
       id="stop228-3" /><stop
       offset="1"
       style="stop-color:#000000"
       id="stop230-1" /></linearGradient><linearGradient
     gradientTransform="translate(-1.9142786,70.153745)"
     id="homeColor1-9"
     gradientUnits="userSpaceOnUse"
     x1="985.30603"
     y1="10.287435"
     x2="985.30603"
     y2="148.85536"
     xlink:href="#SVGID_4_-3"><stop
       offset="0"
       style="stop-color:#000000;stop-opacity:0"
       id="stop198-9" /><stop
       id="stop2143-1"
       style="stop-color:#d6001c;stop-opacity:0.49803922"
       offset="0.25" /><stop
       offset="0.5"
       style="stop-color:#d6001c;stop-opacity:1"
       id="stop228-5" /><stop
       id="stop2141-6"
       style="stop-color:#d6001c;stop-opacity:0.49803922"
       offset="0.75" /><stop
       offset="1"
       style="stop-color:#000000;stop-opacity:0"
       id="stop230-4" /></linearGradient><linearGradient
     id="SVGID_4_-3"
     gradientUnits="userSpaceOnUse"
     x1="522.23242"
     y1="46.5"
     x2="522.23242"
     y2="226.5"><stop
       offset="0"
       style="stop-color:#000000"
       id="stop157-4" /><stop
       offset="5.509242e-02"
       style="stop-color:#4D493F"
       id="stop159-1" /><stop
       offset="0.1195"
       style="stop-color:#6F6848"
       id="stop161-6" /><stop
       offset="0.1848"
       style="stop-color:#897D46"
       id="stop163-8" /><stop
       offset="0.2496"
       style="stop-color:#9F8E3C"
       id="stop165-9" /><stop
       offset="0.3138"
       style="stop-color:#B09B2B"
       id="stop167-5" /><stop
       offset="0.3773"
       style="stop-color:#BDA51A"
       id="stop169-0" /><stop
       offset="0.4398"
       style="stop-color:#C5AA07"
       id="stop171-2" /><stop
       offset="0.5"
       style="stop-color:#C8AC01"
       id="stop173-0" /><stop
       offset="0.5006"
       style="stop-color:#C8AC01"
       id="stop175-6" /><stop
       offset="0.628"
       style="stop-color:#E1C10A"
       id="stop177-0" /><stop
       offset="0.7548"
       style="stop-color:#F2CF12"
       id="stop179-1" /><stop
       offset="0.8796"
       style="stop-color:#FDD916"
       id="stop181-6" /><stop
       offset="1"
       style="stop-color:#FFDE17"
       id="stop183-3" /></linearGradient><clipPath
     clipPathUnits="userSpaceOnUse"
     id="clipPath2612"><path
       inkscape:label="clip"
       style="display:inline;fill:#000000;fill-opacity:1"
       inkscape:connector-curvature="0"
       id="path2614"
       d="m 1120.6,44 h -90.6 -30.59998 -158.8 c 6,10.3 9.4,22.2 9.4,35 0,12.8 -3.4,24.7 -9.4,35 h 158.8 30.59998 90.6 c 6,-10.3 9.4,-22.2 9.4,-35 0,-12.8 -3.4,-24.7 -9.4,-35 z"
       class="st13" /></clipPath><clipPath
     clipPathUnits="userSpaceOnUse"
     id="clipPath1174"><path
       class="st15"
       d="m 650,79 c 0,-12.8 3.4,-24.7 9.4,-35 H 500.6 470 379.4 c -6,10.3 -9.4,22.2 -9.4,35 0,12.8 3.4,24.7 9.4,35 H 470 500.6 659.4 C 653.4,103.7 650,91.8 650,79 Z"
       id="path1176"
       inkscape:connector-curvature="0"
       style="display:inline;fill:#000000;fill-opacity:1"
       inkscape:label="homeColor1" /></clipPath><clipPath
     clipPathUnits="userSpaceOnUse"
     id="clipPath1193"><path
       class="st13"
       d="M 1120.6,44 H 1030 999.4 840.6 c 6,10.3 9.4,22.2 9.4,35 0,12.8 -3.4,24.7 -9.4,35 h 158.8 30.6 90.6 c 6,-10.3 9.4,-22.2 9.4,-35 0,-12.8 -3.4,-24.7 -9.4,-35 z"
       id="path1195"
       inkscape:connector-curvature="0"
       style="display:inline;fill:#041e42;fill-opacity:1"
       inkscape:label="awayColor1" /></clipPath></defs><sodipodi:namedview
   pagecolor="#ffffff"
   bordercolor="#666666"
   borderopacity="1"
   objecttolerance="10"
   gridtolerance="10"
   guidetolerance="10"
   inkscape:pageopacity="0"
   inkscape:pageshadow="2"
   inkscape:window-width="2560"
   inkscape:window-height="1539"
   id="namedview1077"
   showgrid="false"
   inkscape:pagecheckerboard="true"
   inkscape:zoom="1.2375"
   inkscape:cx="450.24241"
   inkscape:cy="81.604575"
   inkscape:window-x="900"
   inkscape:window-y="32"
   inkscape:window-maximized="1"
   inkscape:current-layer="RPI_away"
   fit-margin-top="0"
   fit-margin-left="0"
   fit-margin-right="0"
   fit-margin-bottom="0" />
<style
   type="text/css"
   id="style2">
	.st0{display:none;}
	.st1{display:inline;fill:#BCBEC0;}
	.st2{display:inline;}
	.st3{fill:url(#SVGID_1_);stroke:#FFFFFF;stroke-width:5;stroke-miterlimit:10;}
	.st4{fill:none;}
	.st5{fill:#FFFFFF;}
	.st6{font-family:'TradeGothicNextLTPro-Rg';}
	.st7{font-size:29.4189px;}
	.st8{fill:url(#SVGID_2_);stroke:#FFFFFF;stroke-width:5;stroke-miterlimit:10;}
	.st9{display:inline;fill:#4F504E;}
	.st10{fill:url(#SVGID_3_);stroke:#FFFFFF;stroke-width:5;stroke-miterlimit:10;}
	.st11{font-size:35px;}
	.st12{fill:url(#SVGID_4_);stroke:#FFFFFF;stroke-width:5;stroke-miterlimit:10;}
	.st13{fill:url(#SVGID_5_);}
	.st14{font-size:45px;}
	.st15{fill:url(#SVGID_6_);}
	.st16{display:inline;fill:url(#SVGID_7_);}
	.st17{display:inline;fill:none;}
	.st18{display:inline;fill:#FFFFFF;}
	.st19{display:inline;fill:url(#SVGID_8_);}
	.st20{display:inline;fill:url(#SVGID_9_);}
	.st21{display:inline;fill:url(#SVGID_10_);}
	.st22{display:inline;fill:url(#SVGID_11_);}
	.st23{display:inline;fill:url(#SVGID_12_);}
	.st24{fill:url(#SVGID_13_);}
	.st25{display:inline;fill:url(#SVGID_14_);}
	.st26{display:inline;fill:url(#SVGID_15_);}
	.st27{display:inline;fill:url(#SVGID_16_);}
	.st28{display:inline;fill:url(#SVGID_17_);}
	.st29{display:inline;fill:none;stroke:#FFFFFF;stroke-width:3;stroke-miterlimit:10;}
	.st30{display:inline;fill:url(#SVGID_18_);}
	.st31{display:inline;fill:#614145;}
	.st32{display:inline;fill:#7A1223;}
	.st33{display:inline;fill:#B0ADAC;}
	.st34{display:inline;fill:#4A3C4D;}
	.st35{display:inline;fill:#4D4D4D;}
	.st36{display:inline;fill:#627957;}
	.st37{display:inline;fill:#AFB4B4;}
	.st38{display:inline;fill:#2B394C;}
	.st39{display:inline;fill:#C9D3D9;}
	.st40{display:inline;fill:#050606;}
	.st41{display:inline;fill:#6D6E71;}
	.st42{fill:url(#SVGID_19_);stroke:#FFFFFF;stroke-width:3;stroke-miterlimit:10;}
	.st43{fill:url(#SVGID_20_);stroke:#FFFFFF;stroke-width:3;stroke-miterlimit:10;}
	.st44{fill:url(#SVGID_21_);stroke:#FFFFFF;stroke-width:3;stroke-miterlimit:10;}
	.st45{fill:url(#SVGID_22_);stroke:#FFFFFF;stroke-width:3;stroke-miterlimit:10;}
	.st46{fill:none;stroke:#FFFFFF;stroke-width:5;stroke-miterlimit:10;}
</style>


<g
   id="power_plays_banner"
   class="st0"
   style="display:none"
   transform="translate(-367.5,-41.5)">
	<g
   id="away_pp"
   class="st2"
   style="display:inline">
		
			<linearGradient
   id="SVGID_1_"
   gradientUnits="userSpaceOnUse"
   x1="731.08521"
   y1="47"
   x2="731.08521"
   y2="227"
   gradientTransform="matrix(-1,0,0,1,1708.4648,0)">
			<stop
   offset="0"
   style="stop-color:#000000"
   id="stop14" />
			<stop
   offset="5.509242e-02"
   style="stop-color:#4D493F"
   id="stop16" />
			<stop
   offset="0.1195"
   style="stop-color:#6F6848"
   id="stop18" />
			<stop
   offset="0.1848"
   style="stop-color:#897D46"
   id="stop20" />
			<stop
   offset="0.2496"
   style="stop-color:#9F8E3C"
   id="stop22" />
			<stop
   offset="0.3138"
   style="stop-color:#B09B2B"
   id="stop24" />
			<stop
   offset="0.3773"
   style="stop-color:#BDA51A"
   id="stop26" />
			<stop
   offset="0.4398"
   style="stop-color:#C5AA07"
   id="stop28" />
			<stop
   offset="0.5"
   style="stop-color:#C8AC01"
   id="stop30" />
			<stop
   offset="0.5006"
   style="stop-color:#C8AC01"
   id="stop32" />
			<stop
   offset="0.628"
   style="stop-color:#E1C10A"
   id="stop34" />
			<stop
   offset="0.7548"
   style="stop-color:#F2CF12"
   id="stop36" />
			<stop
   offset="0.8796"
   style="stop-color:#FDD916"
   id="stop38" />
			<stop
   offset="1"
   style="stop-color:#FFDE17"
   id="stop40" />
		</linearGradient>
		<path
   class="st3"
   d="m 840.9,114.5 h 4.4 9.8 27.9 7.1 6.3 20.4 1.5 124.3 20.4 57.2 c -3.8,6.6 -6,14.3 -6,22.5 0,8.2 2.2,15.9 6,22.5 h -57.2 -20.4 -124.4 -1.5 -20.4 -6.3 -7.1 -27.9 -9.8 -4.4 c -4,-6.6 -6.3,-14.3 -6.3,-22.5 0.1,-8.2 2.4,-15.9 6.4,-22.5 z"
   id="path43"
   inkscape:connector-curvature="0"
   style="fill:url(#SVGID_1_);stroke:#ffffff;stroke-width:5;stroke-miterlimit:10" />
		<rect
   x="951.5"
   y="126.8"
   class="st4"
   width="151.39999"
   height="21.299999"
   id="rect45"
   style="fill:none" />
		<text
   transform="matrix(1.037,0,0,1,957.9764,147.8784)"
   class="st5 st6 st7"
   id="text47"
   style="font-size:29.41889954px;font-family:TradeGothicNextLTPro-Rg;fill:#ffffff">Power Play</text>



	</g>
	<g
   id="home_pp"
   class="st2"
   style="display:inline">
		<linearGradient
   id="SVGID_2_"
   gradientUnits="userSpaceOnUse"
   x1="522.23242"
   y1="46.5"
   x2="522.23242"
   y2="226.5">
			<stop
   offset="0"
   style="stop-color:#000000"
   id="stop50" />
			<stop
   offset="5.509242e-02"
   style="stop-color:#4D493F"
   id="stop52" />
			<stop
   offset="0.1195"
   style="stop-color:#6F6848"
   id="stop54" />
			<stop
   offset="0.1848"
   style="stop-color:#897D46"
   id="stop56" />
			<stop
   offset="0.2496"
   style="stop-color:#9F8E3C"
   id="stop58" />
			<stop
   offset="0.3138"
   style="stop-color:#B09B2B"
   id="stop60" />
			<stop
   offset="0.3773"
   style="stop-color:#BDA51A"
   id="stop62" />
			<stop
   offset="0.4398"
   style="stop-color:#C5AA07"
   id="stop64" />
			<stop
   offset="0.5"
   style="stop-color:#C8AC01"
   id="stop66" />
			<stop
   offset="0.5006"
   style="stop-color:#C8AC01"
   id="stop68" />
			<stop
   offset="0.628"
   style="stop-color:#E1C10A"
   id="stop70" />
			<stop
   offset="0.7548"
   style="stop-color:#F2CF12"
   id="stop72" />
			<stop
   offset="0.8796"
   style="stop-color:#FDD916"
   id="stop74" />
			<stop
   offset="1"
   style="stop-color:#FFDE17"
   id="stop76" />
		</linearGradient>
		<path
   class="st8"
   d="m 658.7,114 h -4.4 -9.8 -27.9 -7.1 -6.3 -20.4 -1.5 -124.2 -20.4 -57.2 c 3.8,6.6 6,14.3 6,22.5 0,8.2 -2.2,15.9 -6,22.5 h 57.2 20.4 124.3 1.5 20.4 6.3 7.1 27.9 9.8 4.4 c 4,-6.6 6.3,-14.3 6.3,-22.5 -0.1,-8.2 -2.4,-15.9 -6.4,-22.5 z"
   id="path79"
   inkscape:connector-curvature="0"
   style="fill:url(#SVGID_2_);stroke:#ffffff;stroke-width:5;stroke-miterlimit:10" />
		<rect
   x="396.70001"
   y="126.3"
   class="st4"
   width="151.39999"
   height="21.299999"
   id="rect81"
   style="fill:none" />
		<text
   transform="matrix(1.037,0,0,1,396.6606,147.3784)"
   class="st5 st6 st7"
   id="text83"
   style="font-size:29.41889954px;font-family:TradeGothicNextLTPro-Rg;fill:#ffffff">Power Play</text>



	</g>
</g>
<g
   id="power_plays_tangent"
   class="st0"
   style="display:none"
   transform="translate(-367.5,-41.5)">
	<g
   id="away_pp_1_"
   class="st2"
   style="display:inline">
		<g
   class="st0"
   id="g91"
   style="display:none">
			<circle
   class="st9"
   cx="1060"
   cy="79"
   r="70"
   id="circle87"
   style="display:inline;fill:#4f504e" />
			<polygon
   class="st9"
   points="1010.5,29.5 1109.5,128.5 973.7,264.3 "
   id="polygon89"
   style="display:inline;fill:#4f504e" />
		</g>
		<g
   class="st0"
   id="g97"
   style="display:none">
			<circle
   class="st9"
   cx="780"
   cy="79"
   r="70"
   id="circle93"
   style="display:inline;fill:#4f504e" />
			<polygon
   class="st9"
   points="730.5,29.5 829.5,128.5 693.7,264.3 "
   id="polygon95"
   style="display:inline;fill:#4f504e" />
		</g>
		<linearGradient
   id="SVGID_3_"
   gradientUnits="userSpaceOnUse"
   x1="977.37952"
   y1="47"
   x2="977.37952"
   y2="227">
			<stop
   offset="0"
   style="stop-color:#000000"
   id="stop99" />
			<stop
   offset="5.509242e-02"
   style="stop-color:#4D493F"
   id="stop101" />
			<stop
   offset="0.1195"
   style="stop-color:#6F6848"
   id="stop103" />
			<stop
   offset="0.1848"
   style="stop-color:#897D46"
   id="stop105" />
			<stop
   offset="0.2496"
   style="stop-color:#9F8E3C"
   id="stop107" />
			<stop
   offset="0.3138"
   style="stop-color:#B09B2B"
   id="stop109" />
			<stop
   offset="0.3773"
   style="stop-color:#BDA51A"
   id="stop111" />
			<stop
   offset="0.4398"
   style="stop-color:#C5AA07"
   id="stop113" />
			<stop
   offset="0.5"
   style="stop-color:#C8AC01"
   id="stop115" />
			<stop
   offset="0.5006"
   style="stop-color:#C8AC01"
   id="stop117" />
			<stop
   offset="0.628"
   style="stop-color:#E1C10A"
   id="stop119" />
			<stop
   offset="0.7548"
   style="stop-color:#F2CF12"
   id="stop121" />
			<stop
   offset="0.8796"
   style="stop-color:#FDD916"
   id="stop123" />
			<stop
   offset="1"
   style="stop-color:#FFDE17"
   id="stop125" />
		</linearGradient>
		<path
   class="st10"
   d="m 1062.9,114.5 h -20.4 -45.3 -79 -1.5 -20.4 -6.3 -7.1 -27.9 -9.8 -4.4 c -4,6.6 -6.3,14.3 -6.3,22.5 0,8.2 2.3,15.9 6.3,22.5 h 4.4 9.8 27.9 7.1 6.3 20.4 1.5 72 52.4 20.4 15.5 l 31,-31 c 3.6,-3.6 6.7,-7.5 9.4,-11.7 0.4,-0.8 0.8,-1.6 1.3,-2.3 z"
   id="path128"
   inkscape:connector-curvature="0"
   style="fill:url(#SVGID_3_);stroke:#ffffff;stroke-width:5;stroke-miterlimit:10" />
		<g
   class="st0"
   id="g134"
   style="display:none">
			<circle
   class="st9"
   cx="780"
   cy="79"
   r="70"
   id="circle130"
   style="display:inline;fill:#4f504e" />
			<polygon
   class="st9"
   points="730.5,29.5 829.5,128.5 693.7,264.3 "
   id="polygon132"
   style="display:inline;fill:#4f504e" />
		</g>
		<rect
   x="1028.9"
   y="124"
   class="st4"
   width="72.099998"
   height="25.5"
   id="rect136"
   style="fill:none" />
		<text
   transform="matrix(1.037,0,0,1,1028.9351,149.1294)"
   class="st5 st6 st11"
   id="text138"
   style="font-size:35px;font-family:TradeGothicNextLTPro-Rg;fill:#ffffff">PP</text>



		<rect
   x="860"
   y="124"
   class="st4"
   width="105"
   height="25.5"
   id="rect140"
   style="fill:none" />
		<text
   transform="matrix(1.037,0,0,1,860,149.1294)"
   class="st5 st6 st11"
   id="text142"
   style="font-size:35px;font-family:TradeGothicNextLTPro-Rg;fill:#ffffff">2:00</text>



	</g>
	<g
   id="home_pp_1_"
   class="st2"
   style="display:inline">
		<g
   class="st0"
   id="g149"
   style="display:none">
			<circle
   class="st9"
   cx="440"
   cy="79"
   r="70"
   id="circle145"
   style="display:inline;fill:#4f504e" />
			<polygon
   class="st9"
   points="489.5,29.5 390.5,128.5 526.3,264.3 "
   id="polygon147"
   style="display:inline;fill:#4f504e" />
		</g>
		<g
   class="st0"
   id="g155"
   style="display:none">
			<circle
   class="st9"
   cx="720"
   cy="79"
   r="70"
   id="circle151"
   style="display:inline;fill:#4f504e" />
			<polygon
   class="st9"
   points="769.5,29.5 670.5,128.5 806.3,264.3 "
   id="polygon153"
   style="display:inline;fill:#4f504e" />
		</g>
		<linearGradient
   id="SVGID_4_"
   gradientUnits="userSpaceOnUse"
   x1="522.23242"
   y1="46.5"
   x2="522.23242"
   y2="226.5">
			<stop
   offset="0"
   style="stop-color:#000000"
   id="stop157" />
			<stop
   offset="5.509242e-02"
   style="stop-color:#4D493F"
   id="stop159" />
			<stop
   offset="0.1195"
   style="stop-color:#6F6848"
   id="stop161" />
			<stop
   offset="0.1848"
   style="stop-color:#897D46"
   id="stop163" />
			<stop
   offset="0.2496"
   style="stop-color:#9F8E3C"
   id="stop165" />
			<stop
   offset="0.3138"
   style="stop-color:#B09B2B"
   id="stop167" />
			<stop
   offset="0.3773"
   style="stop-color:#BDA51A"
   id="stop169" />
			<stop
   offset="0.4398"
   style="stop-color:#C5AA07"
   id="stop171" />
			<stop
   offset="0.5"
   style="stop-color:#C8AC01"
   id="stop173" />
			<stop
   offset="0.5006"
   style="stop-color:#C8AC01"
   id="stop175" />
			<stop
   offset="0.628"
   style="stop-color:#E1C10A"
   id="stop177" />
			<stop
   offset="0.7548"
   style="stop-color:#F2CF12"
   id="stop179" />
			<stop
   offset="0.8796"
   style="stop-color:#FDD916"
   id="stop181" />
			<stop
   offset="1"
   style="stop-color:#FFDE17"
   id="stop183" />
		</linearGradient>
		<path
   class="st12"
   d="m 658.7,114 h -4.4 -9.8 -27.9 -7.1 -6.3 -20.4 -1.5 -78.7 -45.7 -20.4 -57.2 c 0.3,0.5 0.5,1 0.8,1.5 2.8,4.6 6.2,9 10.2,13 L 421,159 h 15.7 20.4 52.7 71.6 1.5 20.4 6.3 7.1 27.9 9.8 4.4 c 4,-6.6 6.3,-14.3 6.3,-22.5 -0.1,-8.2 -2.4,-15.9 -6.4,-22.5 z"
   id="path186"
   inkscape:connector-curvature="0"
   style="fill:url(#SVGID_4_);stroke:#ffffff;stroke-width:5;stroke-miterlimit:10" />
		<rect
   x="439.89999"
   y="124"
   class="st4"
   width="72.099998"
   height="25.5"
   id="rect188"
   style="fill:none" />
		<text
   transform="matrix(1.037,0,0,1,439.9351,149.1294)"
   class="st5 st6 st11"
   id="text190"
   style="font-size:35px;font-family:TradeGothicNextLTPro-Rg;fill:#ffffff">PP</text>



		<rect
   x="571"
   y="124"
   class="st4"
   width="105"
   height="25.5"
   id="rect192"
   style="fill:none" />
		<text
   transform="matrix(1.037,0,0,1,571,149.1294)"
   class="st5 st6 st11"
   id="text194"
   style="font-size:35px;font-family:TradeGothicNextLTPro-Rg;fill:#ffffff">2:00</text>



	</g>
</g>
<g
   id="team_graphics"
   class="st0"
   style="display:inline"
   transform="translate(-367.5,-41.5)">
	<g
   id="RPI_away"
   class="st2"
   style="display:inline">
		<linearGradient
   id="awayColor2"
   gradientUnits="userSpaceOnUse"
   x1="985.30603"
   y1="45.656769"
   x2="985.30603"
   y2="113.48603"
   xlink:href="#SVGID_19_">
			<stop
   offset="0"
   style="stop-color:#bbbcbc;stop-opacity:1"
   id="stop198" />
			
			
			
			
			
			
			
			
			
			
			
			
			
			
			<stop
   offset="0.5"
   style="stop-color:#041e42;stop-opacity:0"
   id="stop228" />
			<stop
   offset="1"
   style="stop-color:#bbbcbc;stop-opacity:1"
   id="stop230" />
		</linearGradient>
		<path
   class="st13"
   d="M 1120.6,44 H 1030 999.4 840.6 c 6,10.3 9.4,22.2 9.4,35 0,12.8 -3.4,24.7 -9.4,35 h 158.8 30.6 90.6 c 6,-10.3 9.4,-22.2 9.4,-35 0,-12.8 -3.4,-24.7 -9.4,-35 z"
   id="path233"
   inkscape:connector-curvature="0"
   style="display:inline;fill:url(#awayColor2);fill-opacity:1" /><path
   class="st13"
   d="M 1120.6,44 H 1030 999.4 840.6 c 6,10.3 9.4,22.2 9.4,35 0,12.8 -3.4,24.7 -9.4,35 h 158.8 30.6 90.6 c 6,-10.3 9.4,-22.2 9.4,-35 0,-12.8 -3.4,-24.7 -9.4,-35 z"
   id="awayColor1"
   inkscape:connector-curvature="0"
   style="display:inline;fill:#041e42;fill-opacity:1"
   inkscape:label="awayColor1" /><path
   style="display:inline;fill:#ff0000;fill-opacity:0.58695649;stroke:none;stroke-width:1px;stroke-linecap:butt;stroke-linejoin:miter;stroke-opacity:1"
   d="m 1120.6,114 c 4.3671,-37.19509 -30.4249,-47.92807 -47.9169,-52.40468 -16.5055,-4.22412 -57.612,-29.19041 -57.612,-29.19041 l 63.2769,55.70448 c 0,0 44.4136,55.15546 42.252,25.89061 z"
   id="awayColor3"
   inkscape:connector-curvature="0"
   sodipodi:nodetypes="csccc"
   inkscape:label="#path1141-2"
   clip-path="url(#clipPath1193)" />
		
			
		<rect
   x="806.59998"
   y="62.700001"
   class="st4"
   width="223.39999"
   height="32.5"
   id="rect237"
   style="fill:none" />
		<text
   transform="translate(960.3856,95.0556)"
   class="st5 st6 st14"
   id="awayName"
   style="font-size:45px;font-family:TradeGothicNextLTPro-Rg;fill:#ffffff"
   inkscape:label="awayName">RPI</text>



	</g>
	<g
   id="RPI_home"
   class="st2"
   style="display:inline">
		<linearGradient
   id="SVGID_6_"
   gradientUnits="userSpaceOnUse"
   x1="514.69397"
   y1="114"
   x2="514.69397"
   y2="44">
			<stop
   offset="0"
   style="stop-color:#000000"
   id="stop242" />
			<stop
   offset="5.509242e-02"
   style="stop-color:#584842"
   id="stop244" />
			<stop
   offset="0.1195"
   style="stop-color:#805547"
   id="stop246" />
			<stop
   offset="0.1848"
   style="stop-color:#A05642"
   id="stop248" />
			<stop
   offset="0.2496"
   style="stop-color:#BC5039"
   id="stop250" />
			<stop
   offset="0.3138"
   style="stop-color:#D0432F"
   id="stop252" />
			<stop
   offset="0.3773"
   style="stop-color:#DF3328"
   id="stop254" />
			<stop
   offset="0.4398"
   style="stop-color:#E82325"
   id="stop256" />
			<stop
   offset="0.5"
   style="stop-color:#ED1C24"
   id="stop258" />
			<stop
   offset="0.5602"
   style="stop-color:#E82325"
   id="stop260" />
			<stop
   offset="0.6227"
   style="stop-color:#DF3328"
   id="stop262" />
			<stop
   offset="0.6862"
   style="stop-color:#D0432F"
   id="stop264" />
			<stop
   offset="0.7504"
   style="stop-color:#BC5039"
   id="stop266" />
			<stop
   offset="0.8152"
   style="stop-color:#A05642"
   id="stop268" />
			<stop
   offset="0.8805"
   style="stop-color:#805547"
   id="stop270" />
			<stop
   offset="0.9449"
   style="stop-color:#584842"
   id="stop272" />
			<stop
   offset="1"
   style="stop-color:#000000"
   id="stop274" />
		</linearGradient>
		<path
   class="st15"
   d="m 650,79 c 0,-12.8 3.4,-24.7 9.4,-35 H 500.6 470 379.4 c -6,10.3 -9.4,22.2 -9.4,35 0,12.8 3.4,24.7 9.4,35 H 470 500.6 659.4 C 653.4,103.7 650,91.8 650,79 Z"
   id="homeColor1"
   inkscape:connector-curvature="0"
   style="fill:#000000;fill-opacity:1"
   inkscape:label="homeColor1" />
		
			
		<rect
   x="470"
   y="62.700001"
   class="st4"
   width="223.39999"
   height="32.5"
   id="rect281"
   style="fill:none" />
		<text
   transform="translate(469.9998,95.0556)"
   class="st5 st6 st14"
   id="homeName"
   style="font-size:45px;font-family:TradeGothicNextLTPro-Rg;fill:#ffffff"
   inkscape:label="homeName">RPI</text>



	<path
   style="fill:#ff0000;fill-opacity:0.58695649;stroke:none;stroke-width:1px;stroke-linecap:butt;stroke-linejoin:miter;stroke-opacity:1"
   d="m 370.68883,121.67413 c -4.3671,-37.195091 30.42487,-47.928071 47.91691,-52.404681 16.50545,-4.22412 57.61197,-29.19041 57.61197,-29.19041 l -63.27688,55.70448 c 0,0 -44.41358,55.155461 -42.252,25.890611 z"
   id="homeColor3"
   inkscape:connector-curvature="0"
   sodipodi:nodetypes="csccc"
   inkscape:label="#path1141"
   clip-path="url(#clipPath1174)" /></g>
	
	
	
	
	
	
	
	
	
	
</g>


<g
   id="base"
   transform="translate(-367.5,-41.5)">
	<g
   id="pieces"
   class="st0"
   style="display:none">
		<path
   class="st31"
   d="m 490,-110 h -90.6 c -6,10.3 -9.4,22.2 -9.4,35 0,12.8 3.4,24.7 9.4,35 H 490 Z"
   id="path803"
   inkscape:connector-curvature="0"
   style="display:inline;fill:#614145" />
		<path
   class="st32"
   d="M 749.4,-110 H 740 520.6 490 v 70 h 30.6 219.4 9.4 c -6,-10.3 -9.4,-22.2 -9.4,-35 0,-12.8 3.4,-24.7 9.4,-35 z"
   id="path805"
   inkscape:connector-curvature="0"
   style="display:inline;fill:#7a1223" />
		<path
   class="st33"
   d="m 810,-110 h -60.6 c -6,10.3 -9.4,22.2 -9.4,35 0,12.8 3.4,24.7 9.4,35 H 810 Z"
   id="path807"
   inkscape:connector-curvature="0"
   style="display:inline;fill:#b0adac" />
		<path
   class="st34"
   d="M 1220.6,-110 H 1130 v 70 h 90.6 c 6,-10.3 9.4,-22.2 9.4,-35 0,-12.8 -3.4,-24.7 -9.4,-35 z"
   id="path809"
   inkscape:connector-curvature="0"
   style="display:inline;fill:#4a3c4d" />
		<path
   class="st35"
   d="m 1230,-110 h -9.4 c 6,10.3 9.4,22.2 9.4,35 0,-12.8 3.4,-24.7 9.4,-35 z"
   id="path811"
   inkscape:connector-curvature="0"
   style="display:inline;fill:#4d4d4d" />
		<path
   class="st35"
   d="m 1230,-75 c 0,12.8 -3.4,24.7 -9.4,35 h 9.4 9.4 c -6,-10.3 -9.4,-22.2 -9.4,-35 z"
   id="path813"
   inkscape:connector-curvature="0"
   style="display:inline;fill:#4d4d4d" />
		<path
   class="st36"
   d="m 1330,-110 h -90.6 c -6,10.3 -9.4,22.2 -9.4,35 0,12.8 3.4,24.7 9.4,35 h 90.6 z"
   id="path815"
   inkscape:connector-curvature="0"
   style="display:inline;fill:#627957" />
		<path
   class="st37"
   d="m 1520.6,-110 h -121.2 -38.8 -30.6 v 70 h 30.6 38.8 121.2 c 6,-10.3 9.4,-22.2 9.4,-35 0,-12.8 -3.4,-24.7 -9.4,-35 z"
   id="path817"
   inkscape:connector-curvature="0"
   style="display:inline;fill:#afb4b4" />
		<path
   class="st38"
   d="M 1099.4,-110 H 880 870.6 c 6,10.3 9.4,22.2 9.4,35 0,12.8 -3.4,24.7 -9.4,35 h 9.4 219.4 30.6 v -70 z"
   id="path819"
   inkscape:connector-curvature="0"
   style="display:inline;fill:#2b394c" />
		<path
   class="st39"
   d="M 870.6,-110 H 810 v 70 h 60.6 c 6,-10.3 9.4,-22.2 9.4,-35 0,-12.8 -3.4,-24.7 -9.4,-35 z"
   id="path821"
   inkscape:connector-curvature="0"
   style="display:inline;fill:#c9d3d9" />
	</g>
	<g
   id="pre-pathfinder"
   class="st0"
   style="display:none">
		<circle
   class="st1"
   cx="370"
   cy="79"
   r="70"
   id="circle824"
   style="display:inline;fill:#bcbec0" />
		<circle
   class="st1"
   cx="720"
   cy="79"
   r="70"
   id="circle826"
   style="display:inline;fill:#bcbec0" />
		<circle
   class="st1"
   cx="1130"
   cy="79"
   r="70"
   id="circle828"
   style="display:inline;fill:#bcbec0" />
		<circle
   class="st1"
   cx="1370"
   cy="79"
   r="70"
   id="circle830"
   style="display:inline;fill:#bcbec0" />
		<circle
   class="st1"
   cx="1550"
   cy="79"
   r="70"
   id="circle832"
   style="display:inline;fill:#bcbec0" />
		<rect
   x="300"
   y="44"
   class="st40"
   width="450"
   height="70"
   id="rect834"
   style="display:inline;fill:#050606" />
		<rect
   x="750"
   y="44"
   class="st40"
   width="450"
   height="70"
   id="rect836"
   style="display:inline;fill:#050606" />
		<rect
   x="1300"
   y="44"
   class="st40"
   width="320"
   height="70"
   id="rect838"
   style="display:inline;fill:#050606" />
		<rect
   x="300"
   y="44"
   class="st41"
   width="100"
   height="70"
   id="rect840"
   style="display:inline;fill:#6d6e71" />
		<rect
   x="400"
   y="44"
   class="st41"
   width="250"
   height="70"
   id="rect842"
   style="display:inline;fill:#6d6e71" />
		<rect
   x="650"
   y="44"
   class="st41"
   width="100"
   height="70"
   id="rect844"
   style="display:inline;fill:#6d6e71" />
		<circle
   class="st1"
   cx="780"
   cy="79"
   r="70"
   id="circle846"
   style="display:inline;fill:#bcbec0" />
		<rect
   x="670"
   y="44"
   class="st41"
   width="100"
   height="70"
   id="rect848"
   style="display:inline;fill:#6d6e71" />
		<rect
   x="750"
   y="44"
   class="st41"
   width="100"
   height="70"
   id="rect850"
   style="display:inline;fill:#6d6e71" />
		<rect
   x="850"
   y="44"
   class="st41"
   width="250"
   height="70"
   id="rect852"
   style="display:inline;fill:#6d6e71" />
		<rect
   x="1100"
   y="44"
   class="st41"
   width="100"
   height="70"
   id="rect854"
   style="display:inline;fill:#6d6e71" />
		<rect
   x="1300"
   y="44"
   class="st41"
   width="120"
   height="70"
   id="rect856"
   style="display:inline;fill:#6d6e71" />
		<rect
   x="1420"
   y="44"
   class="st41"
   width="200"
   height="70"
   id="rect858"
   style="display:inline;fill:#6d6e71" />
	</g>
	<g
   id="pieces2"
   class="st0"
   style="display:none">
		<path
   class="st31"
   d="m 400,44 h -90.6 c -6,10.3 -9.4,22.2 -9.4,35 0,12.8 3.4,24.7 9.4,35 H 400 Z"
   id="path861"
   inkscape:connector-curvature="0"
   style="display:inline;fill:#614145" />
		<path
   class="st32"
   d="M 659.4,44 H 650 430.6 400 v 70 h 30.6 219.4 9.4 c -6,-10.3 -9.4,-22.2 -9.4,-35 0,-12.8 3.4,-24.7 9.4,-35 z"
   id="path863"
   inkscape:connector-curvature="0"
   style="display:inline;fill:#7a1223" />
		<path
   class="st33"
   d="M 719.4,44 H 670 659.4 c -6,10.3 -9.4,22.2 -9.4,35 0,12.8 3.4,24.7 9.4,35 H 670 719.4 750 V 44 Z"
   id="path865"
   inkscape:connector-curvature="0"
   style="display:inline;fill:#b0adac" />
		<path
   class="st39"
   d="m 840.6,44 h -60 -10.6 -20 v 70 h 20 10.6 60 c 6,-10.3 9.4,-22.2 9.4,-35 0,-12.8 -3.4,-24.7 -9.4,-35 z"
   id="path867"
   inkscape:connector-curvature="0"
   style="display:inline;fill:#c9d3d9" />
		<path
   class="st38"
   d="M 1069.4,44 H 850 840.6 c 6,10.3 9.4,22.2 9.4,35 0,12.8 -3.4,24.7 -9.4,35 h 9.4 219.4 30.6 V 44 Z"
   id="path869"
   inkscape:connector-curvature="0"
   style="display:inline;fill:#2b394c" />
		<path
   class="st34"
   d="m 1100,44 v 70 h 90.6 c 6,-10.3 9.4,-22.2 9.4,-35 0,-12.8 -3.4,-24.7 -9.4,-35 z"
   id="path871"
   inkscape:connector-curvature="0"
   style="display:inline;fill:#4a3c4d" />
		<path
   class="st36"
   d="m 1420,44 h -110.6 c -6,10.3 -9.4,22.2 -9.4,35 0,12.8 3.4,24.7 9.4,35 H 1420 Z"
   id="path873"
   inkscape:connector-curvature="0"
   style="display:inline;fill:#627957" />
		<path
   class="st37"
   d="m 1610.6,44 h -121.2 -58.8 -10.6 v 70 h 10.6 58.8 121.2 c 6,-10.3 9.4,-22.2 9.4,-35 0,-12.8 -3.4,-24.7 -9.4,-35 z"
   id="path875"
   inkscape:connector-curvature="0"
   style="display:inline;fill:#afb4b4" />
	</g>
	<g
   id="base_3_pt_stroke_1_">
		<linearGradient
   id="SVGID_19_"
   gradientUnits="userSpaceOnUse"
   x1="700"
   y1="44"
   x2="700"
   y2="114">
			<stop
   offset="0"
   style="stop-color:#FFFFFF"
   id="stop878" />
			<stop
   offset="3.690124e-03"
   style="stop-color:#F4F4F5"
   id="stop880" />
			<stop
   offset="2.383813e-02"
   style="stop-color:#CECFD1"
   id="stop882" />
			<stop
   offset="4.654491e-02"
   style="stop-color:#AAACAF"
   id="stop884" />
			<stop
   offset="7.094941e-02"
   style="stop-color:#8D8F92"
   id="stop886" />
			<stop
   offset="9.751302e-02"
   style="stop-color:#757679"
   id="stop888" />
			<stop
   offset="0.1269"
   style="stop-color:#5F6063"
   id="stop890" />
			<stop
   offset="0.16"
   style="stop-color:#4C4C4E"
   id="stop892" />
			<stop
   offset="0.1987"
   style="stop-color:#38383A"
   id="stop894" />
			<stop
   offset="0.2466"
   style="stop-color:#1E1E1F"
   id="stop896" />
			<stop
   offset="0.3137"
   style="stop-color:#070708"
   id="stop898" />
			<stop
   offset="0.5"
   style="stop-color:#000000"
   id="stop900" />
			<stop
   offset="0.6611"
   style="stop-color:#080808"
   id="stop902" />
			<stop
   offset="0.7296"
   style="stop-color:#202020"
   id="stop904" />
			<stop
   offset="0.7805"
   style="stop-color:#3B3A3C"
   id="stop906" />
			<stop
   offset="0.8228"
   style="stop-color:#4E4E50"
   id="stop908" />
			<stop
   offset="0.8596"
   style="stop-color:#626365"
   id="stop910" />
			<stop
   offset="0.8927"
   style="stop-color:#787A7C"
   id="stop912" />
			<stop
   offset="0.9229"
   style="stop-color:#919396"
   id="stop914" />
			<stop
   offset="0.9511"
   style="stop-color:#B0B2B5"
   id="stop916" />
			<stop
   offset="0.9764"
   style="stop-color:#D4D5D7"
   id="stop918" />
			<stop
   offset="1"
   style="stop-color:#FFFFFF"
   id="stop920" />
		</linearGradient>
		<path
   class="st42"
   d="M 719.4,44 H 670 659.4 c -6,10.3 -9.4,22.2 -9.4,35 0,12.8 3.4,24.7 9.4,35 H 670 719.4 750 V 44 Z"
   id="path923"
   inkscape:connector-curvature="0"
   style="fill:url(#SVGID_19_);stroke:#ffffff;stroke-width:3;stroke-miterlimit:10" />
		<linearGradient
   id="SVGID_20_"
   gradientUnits="userSpaceOnUse"
   x1="800"
   y1="44"
   x2="800"
   y2="114">
			<stop
   offset="0"
   style="stop-color:#FFFFFF"
   id="stop925" />
			<stop
   offset="3.690124e-03"
   style="stop-color:#F4F4F5"
   id="stop927" />
			<stop
   offset="2.383813e-02"
   style="stop-color:#CECFD1"
   id="stop929" />
			<stop
   offset="4.654491e-02"
   style="stop-color:#AAACAF"
   id="stop931" />
			<stop
   offset="7.094941e-02"
   style="stop-color:#8D8F92"
   id="stop933" />
			<stop
   offset="9.751302e-02"
   style="stop-color:#757679"
   id="stop935" />
			<stop
   offset="0.1269"
   style="stop-color:#5F6063"
   id="stop937" />
			<stop
   offset="0.16"
   style="stop-color:#4C4C4E"
   id="stop939" />
			<stop
   offset="0.1987"
   style="stop-color:#38383A"
   id="stop941" />
			<stop
   offset="0.2466"
   style="stop-color:#1E1E1F"
   id="stop943" />
			<stop
   offset="0.3137"
   style="stop-color:#070708"
   id="stop945" />
			<stop
   offset="0.5"
   style="stop-color:#000000"
   id="stop947" />
			<stop
   offset="0.6611"
   style="stop-color:#080808"
   id="stop949" />
			<stop
   offset="0.7296"
   style="stop-color:#202020"
   id="stop951" />
			<stop
   offset="0.7805"
   style="stop-color:#3B3A3C"
   id="stop953" />
			<stop
   offset="0.8228"
   style="stop-color:#4E4E50"
   id="stop955" />
			<stop
   offset="0.8596"
   style="stop-color:#626365"
   id="stop957" />
			<stop
   offset="0.8927"
   style="stop-color:#787A7C"
   id="stop959" />
			<stop
   offset="0.9229"
   style="stop-color:#919396"
   id="stop961" />
			<stop
   offset="0.9511"
   style="stop-color:#B0B2B5"
   id="stop963" />
			<stop
   offset="0.9764"
   style="stop-color:#D4D5D7"
   id="stop965" />
			<stop
   offset="1"
   style="stop-color:#FFFFFF"
   id="stop967" />
		</linearGradient>
		<path
   class="st43"
   d="m 840.6,44 h -60 -10.6 -20 v 70 h 20 10.6 60 c 6,-10.3 9.4,-22.2 9.4,-35 0,-12.8 -3.4,-24.7 -9.4,-35 z"
   id="path970"
   inkscape:connector-curvature="0"
   style="fill:url(#SVGID_20_);stroke:#ffffff;stroke-width:3;stroke-miterlimit:10" />
		<linearGradient
   id="SVGID_21_"
   gradientUnits="userSpaceOnUse"
   x1="1360"
   y1="44"
   x2="1360"
   y2="114">
			<stop
   offset="0"
   style="stop-color:#FFFFFF"
   id="stop972" />
			<stop
   offset="3.690124e-03"
   style="stop-color:#F4F4F5"
   id="stop974" />
			<stop
   offset="2.383813e-02"
   style="stop-color:#CECFD1"
   id="stop976" />
			<stop
   offset="4.654491e-02"
   style="stop-color:#AAACAF"
   id="stop978" />
			<stop
   offset="7.094941e-02"
   style="stop-color:#8D8F92"
   id="stop980" />
			<stop
   offset="9.751302e-02"
   style="stop-color:#757679"
   id="stop982" />
			<stop
   offset="0.1269"
   style="stop-color:#5F6063"
   id="stop984" />
			<stop
   offset="0.16"
   style="stop-color:#4C4C4E"
   id="stop986" />
			<stop
   offset="0.1987"
   style="stop-color:#38383A"
   id="stop988" />
			<stop
   offset="0.2466"
   style="stop-color:#1E1E1F"
   id="stop990" />
			<stop
   offset="0.3137"
   style="stop-color:#070708"
   id="stop992" />
			<stop
   offset="0.5"
   style="stop-color:#000000"
   id="stop994" />
			<stop
   offset="0.6611"
   style="stop-color:#080808"
   id="stop996" />
			<stop
   offset="0.7296"
   style="stop-color:#202020"
   id="stop998" />
			<stop
   offset="0.7805"
   style="stop-color:#3B3A3C"
   id="stop1000" />
			<stop
   offset="0.8228"
   style="stop-color:#4E4E50"
   id="stop1002" />
			<stop
   offset="0.8596"
   style="stop-color:#626365"
   id="stop1004" />
			<stop
   offset="0.8927"
   style="stop-color:#787A7C"
   id="stop1006" />
			<stop
   offset="0.9229"
   style="stop-color:#919396"
   id="stop1008" />
			<stop
   offset="0.9511"
   style="stop-color:#B0B2B5"
   id="stop1010" />
			<stop
   offset="0.9764"
   style="stop-color:#D4D5D7"
   id="stop1012" />
			<stop
   offset="1"
   style="stop-color:#FFFFFF"
   id="stop1014" />
		</linearGradient>
		<path
   class="st44"
   d="m 1420,44 h -110.6 c -6,10.3 -9.4,22.2 -9.4,35 0,12.8 3.4,24.7 9.4,35 H 1420 Z"
   id="path1017"
   inkscape:connector-curvature="0"
   style="fill:url(#SVGID_21_);stroke:#ffffff;stroke-width:3;stroke-miterlimit:10" />
		<linearGradient
   id="SVGID_22_"
   gradientUnits="userSpaceOnUse"
   x1="1520"
   y1="44"
   x2="1520"
   y2="114">
			<stop
   offset="0"
   style="stop-color:#FFFFFF"
   id="stop1019" />
			<stop
   offset="3.690124e-03"
   style="stop-color:#F4F4F5"
   id="stop1021" />
			<stop
   offset="2.383813e-02"
   style="stop-color:#CECFD1"
   id="stop1023" />
			<stop
   offset="4.654491e-02"
   style="stop-color:#AAACAF"
   id="stop1025" />
			<stop
   offset="7.094941e-02"
   style="stop-color:#8D8F92"
   id="stop1027" />
			<stop
   offset="9.751302e-02"
   style="stop-color:#757679"
   id="stop1029" />
			<stop
   offset="0.1269"
   style="stop-color:#5F6063"
   id="stop1031" />
			<stop
   offset="0.16"
   style="stop-color:#4C4C4E"
   id="stop1033" />
			<stop
   offset="0.1987"
   style="stop-color:#38383A"
   id="stop1035" />
			<stop
   offset="0.2466"
   style="stop-color:#1E1E1F"
   id="stop1037" />
			<stop
   offset="0.3137"
   style="stop-color:#070708"
   id="stop1039" />
			<stop
   offset="0.5"
   style="stop-color:#000000"
   id="stop1041" />
			<stop
   offset="0.6611"
   style="stop-color:#080808"
   id="stop1043" />
			<stop
   offset="0.7296"
   style="stop-color:#202020"
   id="stop1045" />
			<stop
   offset="0.7805"
   style="stop-color:#3B3A3C"
   id="stop1047" />
			<stop
   offset="0.8228"
   style="stop-color:#4E4E50"
   id="stop1049" />
			<stop
   offset="0.8596"
   style="stop-color:#626365"
   id="stop1051" />
			<stop
   offset="0.8927"
   style="stop-color:#787A7C"
   id="stop1053" />
			<stop
   offset="0.9229"
   style="stop-color:#919396"
   id="stop1055" />
			<stop
   offset="0.9511"
   style="stop-color:#B0B2B5"
   id="stop1057" />
			<stop
   offset="0.9764"
   style="stop-color:#D4D5D7"
   id="stop1059" />
			<stop
   offset="1"
   style="stop-color:#FFFFFF"
   id="stop1061" />
		</linearGradient>
		<path
   class="st45"
   d="m 1610.6,44 h -121.2 -58.8 -10.6 v 70 h 10.6 58.8 121.2 c 6,-10.3 9.4,-22.2 9.4,-35 0,-12.8 -3.4,-24.7 -9.4,-35 z"
   id="path1064"
   inkscape:connector-curvature="0"
   style="fill:url(#SVGID_22_);stroke:#ffffff;stroke-width:3;stroke-miterlimit:10" />
	</g>
	<g
   id="main_border_5_pt_stroke_1_">
		<path
   class="st46"
   d="M 719.4,44 H 740 729.4 720 500.6 470 379.4 c -6,10.3 -9.4,22.2 -9.4,35 0,12.8 3.4,24.7 9.4,35 H 470 500.6 720 729.4 740 719.4 750 V 44 Z"
   id="path1067"
   inkscape:connector-curvature="0"
   style="fill:none;stroke:#ffffff;stroke-width:5;stroke-miterlimit:10" />
		<path
   class="st46"
   d="M 1120.6,44 H 1100 1069.4 850 840.6 780.6 770 750 v 70 h 20 10.6 60 9.4 219.4 30.6 20.6 c 6,-10.3 9.4,-22.2 9.4,-35 0,-12.8 -3.4,-24.7 -9.4,-35 z"
   id="path1069"
   inkscape:connector-curvature="0"
   style="fill:none;stroke:#ffffff;stroke-width:5;stroke-miterlimit:10" />
		<path
   class="st46"
   d="m 1610.6,44 h -121.2 -58.8 -10.6 -110.6 c -6,10.3 -9.4,22.2 -9.4,35 0,12.8 3.4,24.7 9.4,35 h 110.6 10.6 58.8 121.2 c 6,-10.3 9.4,-22.2 9.4,-35 0,-12.8 -3.4,-24.7 -9.4,-35 z"
   id="path1071"
   inkscape:connector-curvature="0"
   style="fill:none;stroke:#ffffff;stroke-width:5;stroke-miterlimit:10" />
	</g>
</g>
</svg>